<svg id="svg" version="1.1" xmlns="http://www.w3.org/2000/svg" xmlns:xlink="http://www.w3.org/1999/xlink" width="400" height="400" viewBox="0, 0, 400,400"><g id="svgg"><path id="path0" d="M38.500 0.289 C 37.785 0.378,37.200 0.619,37.200 0.825 C 37.200 1.031,36.660 1.200,36.000 1.200 C 35.340 1.200,34.800 1.380,34.800 1.600 C 34.800 1.820,34.440 2.000,34.000 2.000 C 33.560 2.000,33.200 2.180,33.200 2.400 C 33.200 2.620,32.840 2.800,32.400 2.800 C 31.960 2.800,31.600 2.950,31.600 3.132 C 31.600 3.315,31.105 3.719,30.500 4.030 C 29.895 4.340,29.109 4.911,28.753 5.297 C 28.397 5.684,27.988 6.000,27.844 6.000 C 27.467 6.000,23.200 10.321,23.200 10.703 C 23.200 10.879,22.840 11.283,22.400 11.600 C 21.960 11.917,21.600 12.497,21.600 12.888 C 21.600 13.280,21.420 13.600,21.200 13.600 C 20.980 13.600,20.800 13.870,20.800 14.200 C 20.800 14.530,20.620 14.800,20.400 14.800 C 20.180 14.800,20.000 15.149,20.000 15.576 C 20.000 16.003,19.820 16.464,19.600 16.600 C 19.380 16.736,19.200 17.197,19.200 17.624 C 19.200 18.051,19.020 18.400,18.800 18.400 C 18.580 18.400,18.400 18.940,18.400 19.600 C 18.400 20.260,18.220 20.800,18.000 20.800 C 17.780 20.800,17.600 21.700,17.600 22.800 C 17.600 23.900,17.420 24.800,17.200 24.800 C 16.934 24.800,16.800 83.467,16.800 200.000 C 16.800 316.533,16.934 375.200,17.200 375.200 C 17.420 375.200,17.600 376.100,17.600 377.200 C 17.600 378.300,17.780 379.200,18.000 379.200 C 18.220 379.200,18.400 379.740,18.400 380.400 C 18.400 381.060,18.580 381.600,18.800 381.600 C 19.020 381.600,19.200 381.853,19.200 382.162 C 19.200 382.828,20.868 386.141,21.300 386.333 C 21.465 386.407,21.600 386.772,21.600 387.145 C 21.600 387.518,21.960 388.083,22.400 388.400 C 22.840 388.717,23.200 389.121,23.200 389.297 C 23.200 389.679,27.467 394.000,27.844 394.000 C 27.988 394.000,28.397 394.316,28.753 394.703 C 29.109 395.089,29.895 395.660,30.500 395.970 C 31.105 396.281,31.600 396.685,31.600 396.868 C 31.600 397.050,31.960 397.200,32.400 397.200 C 32.840 397.200,33.200 397.380,33.200 397.600 C 33.200 397.820,33.560 398.000,34.000 398.000 C 34.440 398.000,34.800 398.180,34.800 398.400 C 34.800 398.620,35.325 398.800,35.967 398.800 C 36.608 398.800,37.208 399.025,37.300 399.300 C 37.432 399.697,52.621 399.822,111.084 399.906 L 184.702 400.012 185.951 398.846 C 186.638 398.204,187.200 397.391,187.200 397.040 C 187.200 396.688,187.380 396.400,187.600 396.400 C 187.820 396.400,188.000 395.860,188.000 395.200 C 188.000 394.448,187.794 394.000,187.450 394.000 C 187.148 394.000,186.800 393.500,186.678 392.889 C 186.556 392.279,186.067 391.284,185.591 390.679 C 183.684 388.255,188.310 388.400,112.880 388.400 C 62.403 388.400,43.473 388.278,42.428 387.945 C 37.582 386.401,33.011 382.746,31.243 379.000 C 30.723 377.900,30.096 376.568,29.849 376.039 C 29.519 375.334,29.400 334.065,29.400 220.639 L 29.400 66.200 54.258 66.000 C 78.387 65.806,79.144 65.777,80.052 65.000 C 82.566 62.849,83.185 60.649,81.978 58.154 C 80.357 54.807,82.164 55.025,54.218 54.800 L 29.400 54.600 29.400 39.800 L 29.400 25.000 30.886 21.960 C 33.260 17.104,37.337 13.716,42.828 12.037 C 43.842 11.727,69.635 11.600,131.734 11.600 C 200.972 11.600,219.397 11.496,220.105 11.100 C 221.868 10.115,222.816 9.028,223.220 7.526 C 223.458 6.642,223.877 6.000,224.215 6.000 C 224.881 6.000,225.033 4.191,224.400 3.800 C 224.180 3.664,224.000 3.276,224.000 2.937 C 224.000 2.598,223.441 1.799,222.758 1.160 L 221.515 0.000 130.658 0.064 C 80.686 0.099,39.215 0.201,38.500 0.289 M237.300 0.478 C 236.805 0.722,236.400 1.125,236.400 1.373 C 236.400 1.621,236.040 2.083,235.600 2.400 C 234.614 3.111,234.471 5.788,235.400 6.145 C 235.730 6.271,236.000 6.747,236.000 7.202 C 236.000 11.261,237.655 11.600,257.456 11.600 C 268.670 11.600,275.034 11.750,275.972 12.037 C 281.487 13.724,285.669 17.198,287.965 22.000 L 289.400 25.000 289.400 39.800 L 289.400 54.600 194.000 54.800 C 101.428 54.994,98.563 55.022,97.354 55.754 C 93.697 57.969,94.063 63.317,98.008 65.299 C 99.322 65.959,104.745 65.999,194.220 65.999 C 267.435 66.000,289.149 66.109,289.520 66.480 C 289.892 66.852,290.000 101.125,290.000 218.303 C 290.000 366.556,289.949 373.309,288.815 376.200 C 286.467 382.185,282.400 386.025,276.372 387.945 C 275.349 388.271,264.888 388.400,239.520 388.400 C 200.868 388.400,202.266 388.319,200.409 390.679 C 199.933 391.284,199.444 392.279,199.322 392.889 C 199.200 393.500,198.853 394.000,198.550 394.000 C 197.168 394.000,198.128 396.931,200.154 398.900 L 201.308 400.022 241.321 399.911 C 272.896 399.823,281.369 399.695,281.500 399.300 C 281.592 399.025,282.192 398.800,282.833 398.800 C 283.475 398.800,284.000 398.620,284.000 398.400 C 284.000 398.180,284.360 398.000,284.800 398.000 C 285.240 398.000,285.600 397.820,285.600 397.600 C 285.600 397.380,285.960 397.200,286.400 397.200 C 286.840 397.200,287.200 397.020,287.200 396.800 C 287.200 396.580,287.470 396.400,287.800 396.400 C 288.130 396.400,288.400 396.220,288.400 396.000 C 288.400 395.780,288.630 395.600,288.912 395.600 C 289.193 395.600,289.683 395.240,290.000 394.800 C 290.317 394.360,290.721 394.000,290.897 394.000 C 291.315 394.000,295.600 389.715,295.600 389.297 C 295.600 389.121,295.960 388.717,296.400 388.400 C 296.840 388.083,297.200 387.503,297.200 387.112 C 297.200 386.720,297.380 386.400,297.600 386.400 C 297.820 386.400,298.000 386.130,298.000 385.800 C 298.000 385.470,298.180 385.200,298.400 385.200 C 298.620 385.200,298.800 384.851,298.800 384.424 C 298.800 383.997,298.980 383.536,299.200 383.400 C 299.420 383.264,299.600 382.803,299.600 382.376 C 299.600 381.949,299.780 381.600,300.000 381.600 C 300.220 381.600,300.400 381.060,300.400 380.400 C 300.400 379.740,300.580 379.200,300.800 379.200 C 301.020 379.200,301.200 378.401,301.200 377.424 C 301.200 376.447,301.380 375.536,301.600 375.400 C 302.155 375.057,302.155 24.943,301.600 24.600 C 301.380 24.464,301.200 23.553,301.200 22.576 C 301.200 21.599,301.020 20.800,300.800 20.800 C 300.580 20.800,300.400 20.260,300.400 19.600 C 300.400 18.940,300.220 18.400,300.000 18.400 C 299.780 18.400,299.600 18.051,299.600 17.624 C 299.600 17.197,299.420 16.736,299.200 16.600 C 298.980 16.464,298.800 16.003,298.800 15.576 C 298.800 15.149,298.620 14.800,298.400 14.800 C 298.180 14.800,298.000 14.530,298.000 14.200 C 298.000 13.870,297.820 13.600,297.600 13.600 C 297.380 13.600,297.200 13.280,297.200 12.888 C 297.200 12.497,296.840 11.917,296.400 11.600 C 295.960 11.283,295.600 10.879,295.600 10.703 C 295.600 10.285,291.315 6.000,290.897 6.000 C 290.721 6.000,290.317 5.640,290.000 5.200 C 289.683 4.760,289.193 4.400,288.912 4.400 C 288.630 4.400,288.400 4.220,288.400 4.000 C 288.400 3.780,288.130 3.600,287.800 3.600 C 287.470 3.600,287.200 3.420,287.200 3.200 C 287.200 2.980,286.840 2.800,286.400 2.800 C 285.960 2.800,285.600 2.620,285.600 2.400 C 285.600 2.180,285.240 2.000,284.800 2.000 C 284.360 2.000,284.000 1.820,284.000 1.600 C 284.000 1.380,283.475 1.200,282.833 1.200 C 282.192 1.200,281.592 0.975,281.500 0.700 C 281.273 0.018,238.665 -0.196,237.300 0.478 M331.800 0.373 C 331.360 0.543,330.595 0.819,330.100 0.987 C 329.605 1.156,329.200 1.452,329.200 1.647 C 329.200 1.841,328.880 2.000,328.488 2.000 C 328.097 2.000,327.517 2.360,327.200 2.800 C 326.883 3.240,326.470 3.600,326.283 3.600 C 325.828 3.600,324.800 4.648,324.800 5.112 C 324.800 5.315,324.260 6.046,323.600 6.737 C 322.940 7.428,322.400 8.264,322.400 8.596 C 322.400 8.928,322.220 9.200,322.000 9.200 C 321.780 9.200,321.600 9.560,321.600 10.000 C 321.600 10.440,321.420 10.800,321.200 10.800 C 320.980 10.800,320.800 11.430,320.800 12.200 C 320.800 12.970,320.620 13.600,320.400 13.600 C 320.134 13.600,320.000 69.333,320.000 180.000 C 320.000 290.667,320.134 346.400,320.400 346.400 C 320.620 346.400,320.800 346.760,320.800 347.200 C 320.800 347.640,320.980 348.000,321.200 348.000 C 321.420 348.000,321.600 348.360,321.600 348.800 C 321.600 349.240,321.780 349.600,322.000 349.600 C 322.220 349.600,322.400 349.960,322.400 350.400 C 322.400 350.840,322.580 351.200,322.800 351.200 C 323.020 351.200,323.200 351.560,323.200 352.000 C 323.200 352.440,323.380 352.800,323.600 352.800 C 323.820 352.800,324.000 353.160,324.000 353.600 C 324.000 354.040,324.180 354.400,324.400 354.400 C 324.620 354.400,324.800 354.664,324.800 354.986 C 324.800 355.710,326.089 358.551,326.500 358.733 C 326.665 358.807,326.800 359.212,326.800 359.633 C 326.800 360.055,326.980 360.400,327.200 360.400 C 327.420 360.400,327.600 360.760,327.600 361.200 C 327.600 361.640,327.780 362.000,328.000 362.000 C 328.220 362.000,328.400 362.360,328.400 362.800 C 328.400 363.240,328.580 363.600,328.800 363.600 C 329.020 363.600,329.200 363.960,329.200 364.400 C 329.200 364.840,329.380 365.200,329.600 365.200 C 329.820 365.200,330.000 365.560,330.000 366.000 C 330.000 366.440,330.180 366.800,330.400 366.800 C 330.620 366.800,330.800 367.160,330.800 367.600 C 330.800 368.040,330.980 368.400,331.200 368.400 C 331.420 368.400,331.600 368.760,331.600 369.200 C 331.600 369.640,331.780 370.000,332.000 370.000 C 332.220 370.000,332.400 370.360,332.400 370.800 C 332.400 371.240,332.580 371.600,332.800 371.600 C 333.020 371.600,333.200 371.960,333.200 372.400 C 333.200 372.840,333.380 373.200,333.600 373.200 C 333.820 373.200,334.000 373.545,334.000 373.967 C 334.000 374.388,334.137 374.793,334.304 374.867 C 334.712 375.046,338.007 381.667,338.003 382.300 C 338.001 382.575,338.180 382.800,338.400 382.800 C 338.620 382.800,338.800 383.160,338.800 383.600 C 338.800 384.040,338.980 384.400,339.200 384.400 C 339.420 384.400,339.600 384.760,339.600 385.200 C 339.600 385.640,339.780 386.000,340.000 386.000 C 340.220 386.000,340.400 386.360,340.400 386.800 C 340.400 387.240,340.580 387.600,340.800 387.600 C 341.020 387.600,341.200 387.848,341.200 388.150 C 341.200 389.274,345.690 397.763,346.865 398.861 C 350.397 402.160,358.800 399.174,358.800 394.620 C 358.800 394.279,358.980 394.000,359.200 394.000 C 359.420 394.000,359.600 393.640,359.600 393.200 C 359.600 392.760,359.780 392.400,360.000 392.400 C 360.220 392.400,360.400 392.040,360.400 391.600 C 360.400 391.160,360.580 390.800,360.800 390.800 C 361.020 390.800,361.200 390.440,361.200 390.000 C 361.200 389.560,361.380 389.200,361.600 389.200 C 361.820 389.200,362.000 388.855,362.000 388.433 C 362.000 388.012,362.138 387.607,362.306 387.533 C 362.712 387.356,373.200 366.335,373.200 365.697 C 373.200 365.424,373.380 365.200,373.600 365.200 C 373.820 365.200,374.000 364.840,374.000 364.400 C 374.000 363.960,374.180 363.600,374.400 363.600 C 374.620 363.600,374.800 363.303,374.800 362.940 C 374.800 362.316,376.712 358.029,377.181 357.600 C 377.636 357.185,379.200 353.901,379.200 353.362 C 379.200 353.053,379.380 352.800,379.600 352.800 C 379.820 352.800,380.000 352.440,380.000 352.000 C 380.000 351.560,380.180 351.200,380.400 351.200 C 380.620 351.200,380.800 350.840,380.800 350.400 C 380.800 349.960,380.980 349.600,381.200 349.600 C 381.420 349.600,381.600 349.240,381.600 348.800 C 381.600 348.360,381.780 348.000,382.000 348.000 C 382.220 348.000,382.400 347.640,382.400 347.200 C 382.400 346.760,382.580 346.400,382.800 346.400 C 383.066 346.400,383.200 290.667,383.200 180.000 C 383.200 69.333,383.066 13.600,382.800 13.600 C 382.580 13.600,382.400 12.970,382.400 12.200 C 382.400 11.430,382.220 10.800,382.000 10.800 C 381.780 10.800,381.600 10.440,381.600 10.000 C 381.600 9.560,381.420 9.200,381.200 9.200 C 380.980 9.200,380.800 8.880,380.800 8.488 C 380.800 8.097,380.440 7.517,380.000 7.200 C 379.560 6.883,379.200 6.438,379.200 6.212 C 379.199 5.553,377.361 3.600,376.742 3.600 C 376.431 3.600,375.917 3.240,375.600 2.800 C 375.283 2.360,374.793 2.000,374.512 2.000 C 374.230 2.000,373.999 1.865,373.997 1.700 C 373.983 0.331,335.087 -0.892,331.800 0.373 M367.529 12.224 C 370.606 13.760,370.586 13.647,370.714 30.168 C 370.805 41.863,370.722 45.003,370.314 45.261 C 369.640 45.689,333.556 45.687,332.881 45.259 C 332.468 44.997,332.387 41.926,332.481 30.165 C 332.645 9.845,330.745 11.702,351.439 11.642 C 364.143 11.606,366.457 11.690,367.529 12.224 M370.400 65.600 L 370.400 74.000 351.600 74.000 L 332.800 74.000 332.800 65.600 L 332.800 57.200 351.600 57.200 L 370.400 57.200 370.400 65.600 M370.301 85.930 C 370.700 86.184,370.781 111.707,370.701 212.224 L 370.600 338.200 351.716 338.304 C 333.338 338.405,332.821 338.387,332.414 337.627 C 331.666 336.228,332.049 86.466,332.800 85.992 C 333.531 85.529,369.577 85.470,370.301 85.930 M74.600 104.400 C 74.464 104.620,74.009 104.800,73.589 104.800 C 70.721 104.800,65.447 109.497,63.258 114.000 L 61.800 117.000 61.800 130.800 L 61.800 144.600 63.073 147.295 C 65.286 151.983,69.363 155.517,74.276 157.008 C 77.667 158.037,99.908 157.849,103.214 156.764 C 113.010 153.548,115.599 147.938,115.600 129.925 L 115.600 119.649 116.842 118.325 C 120.219 114.725,120.533 111.382,117.721 108.966 C 116.020 107.504,112.431 107.262,110.889 108.504 C 110.518 108.803,109.970 108.597,108.889 107.749 C 107.507 106.666,105.390 105.541,102.681 104.451 C 101.223 103.863,74.961 103.816,74.600 104.400 M99.800 115.540 C 102.822 116.523,102.863 116.433,96.283 123.165 C 90.303 129.282,90.878 129.109,87.588 125.783 C 83.374 121.521,80.252 120.754,77.492 123.300 C 73.854 126.656,74.535 128.622,81.909 136.065 C 90.518 144.754,91.217 144.784,98.943 136.791 C 104.281 131.269,104.000 131.251,104.000 137.112 C 104.000 146.040,103.223 146.483,87.864 146.318 C 72.282 146.151,73.054 146.905,72.874 131.672 C 72.672 114.591,71.984 115.317,88.400 115.294 C 94.230 115.286,99.360 115.397,99.800 115.540 M141.024 125.724 C 136.841 128.290,136.811 133.753,140.967 135.641 C 143.147 136.631,251.409 136.833,253.713 135.852 C 257.832 134.097,258.331 128.543,254.589 126.100 L 253.211 125.200 197.506 125.224 C 155.144 125.241,141.614 125.361,141.024 125.724 M75.460 170.403 C 70.507 171.277,65.618 175.186,63.149 180.244 L 61.805 183.000 61.667 194.874 C 61.478 211.222,62.039 213.889,66.660 218.601 C 71.085 223.113,74.512 223.967,88.274 223.986 C 106.935 224.012,112.605 220.813,115.193 208.800 C 115.799 205.984,115.698 187.919,115.057 184.557 C 114.178 179.948,109.593 172.800,107.515 172.800 C 107.326 172.800,106.691 172.485,106.104 172.100 C 103.482 170.382,102.655 170.284,89.800 170.170 C 82.980 170.110,76.527 170.214,75.460 170.403 M100.798 182.047 C 103.864 183.770,104.004 184.432,103.971 197.054 C 103.928 213.216,104.737 212.400,88.767 212.400 C 72.200 212.400,72.800 212.987,72.800 196.800 C 72.800 180.811,72.324 181.282,88.546 181.232 C 98.782 181.202,99.363 181.240,100.798 182.047 M139.741 192.900 C 136.804 196.042,137.302 199.948,140.880 201.832 C 142.462 202.664,252.140 202.687,254.131 201.855 C 257.621 200.396,258.147 194.974,255.030 192.596 L 253.724 191.600 197.341 191.600 L 140.957 191.600 139.741 192.900 M76.600 236.197 C 76.380 236.271,75.120 236.648,73.800 237.036 C 69.407 238.327,65.428 241.691,63.406 245.824 C 60.691 251.372,60.742 274.763,63.480 280.400 C 67.225 288.108,72.107 289.970,88.600 289.979 C 104.771 289.987,109.508 288.182,113.381 280.533 C 115.446 276.455,116.602 257.742,115.193 251.200 C 114.541 248.172,113.885 246.250,113.125 245.138 C 112.726 244.554,112.396 243.924,112.391 243.738 C 112.378 243.282,108.426 239.526,107.300 238.900 C 102.430 236.195,101.094 235.995,88.123 236.032 C 82.005 236.049,76.820 236.123,76.600 236.197 M101.104 248.398 C 103.917 250.113,103.997 250.512,103.999 262.920 C 104.000 275.291,103.968 275.468,101.332 277.479 L 99.863 278.600 88.631 278.600 C 72.133 278.600,73.000 279.466,73.000 263.000 C 73.000 246.609,72.005 247.603,88.400 247.603 C 99.071 247.603,99.883 247.654,101.104 248.398 M141.827 257.833 C 137.677 259.352,136.527 263.519,139.365 266.752 C 141.247 268.896,138.532 268.801,197.687 268.793 L 252.600 268.787 254.200 267.890 C 258.897 265.257,257.750 258.785,252.383 257.634 C 248.974 256.903,143.849 257.092,141.827 257.833 M73.176 303.339 C 68.543 305.132,65.171 308.237,63.118 312.600 L 61.800 315.400 61.800 328.800 C 61.800 345.146,62.201 346.798,67.297 351.472 C 71.809 355.608,73.620 355.992,88.600 355.987 C 102.324 355.983,104.300 355.672,107.921 352.952 C 114.268 348.184,115.599 344.066,115.599 329.200 C 115.599 311.886,112.718 306.113,102.440 302.834 C 99.612 301.931,75.748 302.343,73.176 303.339 M101.280 314.533 C 103.891 316.304,104.000 316.896,104.000 329.228 C 104.000 345.440,104.645 344.800,88.305 344.800 C 72.414 344.800,73.055 345.412,72.874 330.072 C 72.672 312.936,71.960 313.657,89.000 313.743 C 99.142 313.795,100.302 313.869,101.280 314.533 M141.006 324.124 C 136.998 326.527,136.886 331.957,140.801 334.056 C 142.650 335.048,251.402 335.236,253.713 334.252 C 257.921 332.458,258.331 326.657,254.405 324.451 L 252.891 323.600 197.346 323.624 C 155.118 323.641,141.610 323.761,141.006 324.124 M366.734 349.951 C 367.226 350.263,357.910 369.581,356.377 371.428 C 355.693 372.252,347.504 372.249,346.820 371.424 C 345.343 369.645,336.009 350.241,336.484 349.939 C 337.169 349.505,366.048 349.516,366.734 349.951 " stroke="none" fill="#060606" fill-rule="evenodd"></path><path id="path1" d="M82.652 62.500 C 80.762 66.901,81.442 66.800,53.608 66.800 L 29.590 66.800 29.701 220.500 C 29.805 366.245,29.848 374.290,30.516 375.937 C 33.030 382.129,37.326 386.041,43.136 387.430 C 44.993 387.874,57.781 387.974,114.241 387.986 L 183.082 388.000 184.441 388.900 C 185.258 389.441,186.198 390.636,186.800 391.899 L 187.800 393.997 193.020 393.999 L 198.239 394.000 198.767 392.500 C 199.058 391.675,199.679 390.578,200.148 390.062 C 202.101 387.912,200.457 388.001,238.280 387.986 C 276.333 387.970,275.899 387.993,279.978 385.773 C 283.729 383.732,286.405 380.563,288.284 375.937 C 288.954 374.289,288.995 366.291,289.099 220.500 L 289.209 66.800 194.751 66.800 C 123.263 66.800,99.909 66.685,98.715 66.327 C 96.997 65.813,94.400 63.165,94.400 61.928 C 94.400 61.259,93.949 61.200,88.805 61.200 L 83.211 61.200 82.652 62.500 M104.093 104.339 C 105.354 104.842,107.298 105.879,108.412 106.646 C 110.382 108.001,110.472 108.022,111.681 107.420 C 114.473 106.027,118.072 107.443,119.562 110.521 C 120.940 113.368,120.449 115.340,117.623 118.301 L 116.000 120.002 116.000 131.359 C 116.000 144.010,115.735 145.732,113.165 149.800 C 110.832 153.492,108.273 155.459,103.081 157.549 C 102.328 157.853,97.527 158.000,88.400 158.000 C 79.273 158.000,74.472 157.853,73.719 157.549 C 67.062 154.869,62.951 150.431,61.352 144.200 C 60.889 142.394,60.977 118.866,61.454 116.979 C 63.097 110.480,68.846 104.949,75.363 103.597 C 79.308 102.779,101.622 103.356,104.093 104.339 M254.501 125.300 C 258.669 127.641,258.939 133.352,255.002 135.900 L 253.611 136.800 197.586 136.800 C 134.989 136.800,140.085 137.052,138.216 133.863 C 136.545 131.012,136.978 128.530,139.570 126.100 L 140.956 124.800 197.284 124.800 C 241.604 124.800,253.801 124.907,254.501 125.300 M101.330 169.792 C 108.466 171.304,113.525 176.138,115.419 183.252 C 116.221 186.266,116.238 207.670,115.441 210.665 C 113.794 216.851,108.875 221.956,102.849 223.735 C 102.009 223.983,96.185 224.221,89.000 224.302 C 76.965 224.437,74.880 224.291,72.705 223.161 C 72.323 222.962,71.819 222.800,71.583 222.800 C 69.680 222.800,64.680 217.997,62.992 214.549 C 60.314 209.074,59.660 186.207,62.047 181.505 C 62.241 181.123,62.400 180.632,62.400 180.413 C 62.400 176.776,70.695 170.474,76.800 169.473 C 79.691 168.999,98.757 169.247,101.330 169.792 M253.763 191.186 C 255.110 191.698,257.200 193.725,257.200 194.520 C 257.200 194.868,257.380 195.264,257.600 195.400 C 259.123 196.341,256.961 200.966,254.375 202.300 L 252.630 203.200 197.495 203.200 C 137.999 203.200,141.405 203.313,139.067 201.260 C 135.981 198.550,137.475 191.829,141.331 191.078 C 143.239 190.707,252.778 190.811,253.763 191.186 M102.174 236.041 C 108.707 237.855,113.722 242.881,115.441 249.335 C 116.238 252.330,116.221 273.734,115.419 276.748 C 114.211 281.287,110.779 286.141,107.666 287.714 C 107.080 288.010,106.240 288.445,105.800 288.680 C 102.662 290.355,101.633 290.484,89.800 290.686 C 75.806 290.926,71.911 290.147,67.285 286.182 C 65.589 284.728,62.400 280.442,62.400 279.617 C 62.400 279.381,62.241 278.877,62.047 278.495 C 60.645 275.734,60.169 254.465,61.403 249.720 C 63.111 243.153,67.314 238.527,73.461 236.448 C 76.212 235.518,99.119 235.193,102.174 236.041 M254.615 257.788 C 257.001 259.186,258.995 263.738,257.600 264.600 C 257.380 264.736,257.200 265.163,257.200 265.549 C 257.200 266.539,255.192 268.343,253.573 268.808 C 251.236 269.478,142.685 269.330,141.068 268.654 C 137.171 267.026,136.018 261.601,138.978 258.820 C 141.152 256.778,138.113 256.881,197.365 256.839 L 252.930 256.800 254.615 257.788 M101.216 302.003 C 107.847 303.261,113.195 308.110,115.188 314.672 C 116.386 318.616,116.281 341.289,115.049 344.591 C 113.093 349.836,108.910 353.913,103.584 355.767 C 101.336 356.550,75.600 356.707,73.719 355.949 C 67.062 353.269,62.951 348.831,61.352 342.600 C 60.951 341.036,60.951 317.364,61.352 315.800 C 63.071 309.100,68.948 303.266,75.218 302.037 C 77.732 301.544,98.653 301.517,101.216 302.003 M255.002 324.100 C 258.743 326.521,258.705 331.830,254.928 334.400 L 253.459 335.400 197.629 335.400 C 142.016 335.400,141.795 335.397,140.400 334.578 C 136.230 332.128,136.339 326.146,140.600 323.686 C 141.194 323.343,155.835 323.221,197.506 323.212 L 253.611 323.200 255.002 324.100 M337.267 350.700 C 337.340 350.865,338.183 352.620,339.140 354.600 C 340.097 356.580,341.438 359.370,342.120 360.800 C 342.802 362.230,343.504 363.460,343.680 363.533 C 343.856 363.607,344.000 364.012,344.000 364.433 C 344.000 364.855,344.180 365.200,344.400 365.200 C 344.620 365.200,344.800 365.560,344.800 366.000 C 344.800 366.440,344.980 366.800,345.200 366.800 C 345.420 366.800,345.600 367.160,345.600 367.600 C 345.600 368.040,345.780 368.400,346.000 368.400 C 346.220 368.400,346.400 368.683,346.400 369.029 C 346.400 370.453,347.419 370.800,351.600 370.800 C 355.781 370.800,356.800 370.453,356.800 369.029 C 356.800 368.683,356.980 368.400,357.200 368.400 C 357.420 368.400,357.600 368.040,357.600 367.600 C 357.600 367.160,357.780 366.800,358.000 366.800 C 358.220 366.800,358.400 366.440,358.400 366.000 C 358.400 365.560,358.536 365.200,358.702 365.200 C 358.869 365.200,359.260 364.615,359.572 363.900 C 359.884 363.185,361.413 359.991,362.970 356.802 C 364.526 353.613,365.860 350.868,365.933 350.702 C 366.007 350.536,359.557 350.400,351.600 350.400 C 343.643 350.400,337.193 350.535,337.267 350.700 " stroke="none" fill="#ebf3fb" fill-rule="evenodd"></path><path id="path2" d="M83.061 61.100 C 82.958 61.265,84.612 61.352,86.737 61.294 C 93.865 61.098,94.643 60.949,88.924 60.874 C 85.802 60.833,83.163 60.935,83.061 61.100 M41.900 66.700 C 48.555 66.761,59.445 66.761,66.100 66.700 C 72.755 66.638,67.310 66.588,54.000 66.588 C 40.690 66.588,35.245 66.638,41.900 66.700 M146.932 66.700 C 173.075 66.757,215.735 66.757,241.732 66.700 C 267.729 66.643,246.340 66.597,194.200 66.597 C 142.060 66.597,120.789 66.643,146.932 66.700 M332.987 86.496 C 332.881 86.773,332.841 143.430,332.898 212.400 L 333.000 337.800 351.600 337.800 L 370.200 337.800 370.200 212.000 L 370.200 86.200 351.689 86.096 C 337.093 86.014,333.137 86.099,332.987 86.496 M82.500 103.499 C 85.745 103.566,91.055 103.566,94.300 103.499 C 97.545 103.432,94.890 103.377,88.400 103.377 C 81.910 103.377,79.255 103.432,82.500 103.499 M112.252 107.116 C 112.144 107.290,112.718 107.367,113.528 107.287 C 115.742 107.069,116.005 106.867,114.124 106.832 C 113.202 106.814,112.359 106.942,112.252 107.116 M120.060 112.867 C 120.027 113.454,119.896 114.264,119.770 114.667 C 119.552 115.360,119.565 115.361,119.995 114.690 C 120.246 114.299,120.377 113.489,120.286 112.890 L 120.120 111.800 120.060 112.867 M77.000 116.190 C 73.607 117.418,73.604 117.428,73.602 130.703 L 73.600 142.407 74.672 143.610 C 76.735 145.926,77.161 146.000,88.424 146.000 C 102.625 146.000,103.764 145.314,103.514 136.911 L 103.400 133.074 99.633 136.923 C 97.560 139.039,95.760 140.937,95.633 141.139 C 94.597 142.779,90.134 143.728,88.295 142.700 C 86.842 141.888,76.014 131.104,75.381 129.839 C 73.782 126.642,76.300 122.038,79.967 121.452 C 82.525 121.043,84.094 121.796,87.368 125.007 C 91.066 128.634,90.281 128.691,94.321 124.500 C 96.176 122.575,98.521 120.145,99.532 119.100 C 101.282 117.291,101.337 117.166,100.672 116.500 C 99.698 115.525,79.565 115.261,77.000 116.190 M61.043 118.633 C 60.695 119.540,60.754 142.509,61.106 143.062 C 61.268 143.316,61.400 137.781,61.400 130.762 C 61.400 123.743,61.374 118.000,61.343 118.000 C 61.311 118.000,61.176 118.285,61.043 118.633 M115.777 131.600 C 115.777 138.090,115.832 140.745,115.899 137.500 C 115.966 134.255,115.966 128.945,115.899 125.700 C 115.832 122.455,115.777 125.110,115.777 131.600 M137.309 130.800 C 137.309 131.790,137.387 132.195,137.482 131.700 C 137.578 131.205,137.578 130.395,137.482 129.900 C 137.387 129.405,137.309 129.810,137.309 130.800 M257.693 130.800 C 257.693 131.570,257.775 131.885,257.876 131.500 C 257.976 131.115,257.976 130.485,257.876 130.100 C 257.775 129.715,257.693 130.030,257.693 130.800 M82.900 169.499 C 85.925 169.567,90.875 169.567,93.900 169.499 C 96.925 169.431,94.450 169.375,88.400 169.375 C 82.350 169.375,79.875 169.431,82.900 169.499 M76.567 182.388 C 76.109 182.573,75.254 183.295,74.667 183.993 L 73.600 185.261 73.600 196.657 C 73.600 212.978,72.744 212.210,90.629 211.939 C 104.001 211.736,103.600 212.212,103.600 196.546 C 103.600 181.258,104.358 181.989,88.538 182.025 C 82.412 182.039,77.025 182.202,76.567 182.388 M115.778 197.000 C 115.778 203.820,115.832 206.666,115.899 203.325 C 115.966 199.984,115.966 194.404,115.899 190.925 C 115.833 187.446,115.778 190.180,115.778 197.000 M60.977 197.000 C 60.977 203.600,61.032 206.356,61.099 203.125 C 61.166 199.893,61.166 194.493,61.099 191.125 C 61.032 187.756,60.977 190.400,60.977 197.000 M257.400 197.000 C 257.400 197.948,257.535 198.640,257.700 198.538 C 257.865 198.436,258.000 197.744,258.000 197.000 C 258.000 196.256,257.865 195.564,257.700 195.462 C 257.535 195.360,257.400 196.052,257.400 197.000 M137.301 197.000 C 137.305 197.880,137.387 198.193,137.483 197.695 C 137.579 197.198,137.575 196.478,137.475 196.095 C 137.375 195.713,137.296 196.120,137.301 197.000 M66.000 219.000 C 66.746 219.770,67.447 220.400,67.557 220.400 C 67.667 220.400,67.146 219.770,66.400 219.000 C 65.654 218.230,64.953 217.600,64.843 217.600 C 64.733 217.600,65.254 218.230,66.000 219.000 M81.900 235.899 C 85.475 235.966,91.325 235.966,94.900 235.899 C 98.475 235.833,95.550 235.779,88.400 235.779 C 81.250 235.779,78.325 235.833,81.900 235.899 M76.183 248.745 C 73.616 250.311,73.600 250.397,73.600 262.992 C 73.600 279.088,72.516 278.000,88.542 278.000 L 99.724 278.000 101.067 276.976 C 103.439 275.166,103.600 274.270,103.599 262.851 C 103.598 247.366,104.245 247.999,88.441 248.001 C 78.392 248.003,77.291 248.070,76.183 248.745 M115.778 263.000 C 115.778 269.820,115.832 272.666,115.899 269.325 C 115.966 265.984,115.966 260.404,115.899 256.925 C 115.833 253.446,115.778 256.180,115.778 263.000 M60.977 263.000 C 60.977 269.600,61.032 272.356,61.099 269.125 C 61.166 265.893,61.166 260.493,61.099 257.125 C 61.032 253.756,60.977 256.400,60.977 263.000 M141.462 257.100 C 141.294 257.371,179.730 257.370,233.200 257.096 C 244.310 257.039,228.256 256.949,197.524 256.896 C 166.792 256.843,141.564 256.935,141.462 257.100 M138.975 258.900 L 137.800 260.200 139.100 259.025 C 140.312 257.930,140.584 257.600,140.275 257.600 C 140.206 257.600,139.621 258.185,138.975 258.900 M137.301 263.000 C 137.305 263.880,137.387 264.193,137.483 263.695 C 137.579 263.198,137.575 262.478,137.475 262.095 C 137.375 261.713,137.296 262.120,137.301 263.000 M257.568 263.300 C 257.449 264.160,257.510 264.650,257.712 264.448 C 257.905 264.255,257.998 263.581,257.919 262.949 C 257.787 261.891,257.759 261.919,257.568 263.300 M169.469 269.100 C 184.687 269.158,209.707 269.158,225.069 269.100 C 240.431 269.042,227.980 268.994,197.400 268.994 C 166.820 268.994,154.251 269.042,169.469 269.100 M66.200 285.200 C 67.059 286.080,67.852 286.800,67.962 286.800 C 68.072 286.800,67.459 286.080,66.600 285.200 C 65.741 284.320,64.948 283.600,64.838 283.600 C 64.728 283.600,65.341 284.320,66.200 285.200 M83.124 290.699 C 86.273 290.767,91.313 290.767,94.324 290.699 C 97.336 290.631,94.760 290.576,88.600 290.576 C 82.440 290.576,79.976 290.632,83.124 290.699 M82.500 301.899 C 85.745 301.966,91.055 301.966,94.300 301.899 C 97.545 301.832,94.890 301.777,88.400 301.777 C 81.910 301.777,79.255 301.832,82.500 301.899 M109.600 306.125 C 109.600 306.194,110.185 306.779,110.900 307.425 L 112.200 308.600 111.025 307.300 C 109.930 306.088,109.600 305.816,109.600 306.125 M75.957 314.999 C 73.644 316.256,73.600 316.522,73.600 329.189 L 73.600 340.807 74.672 342.010 C 76.740 344.331,77.142 344.400,88.638 344.400 C 95.216 344.400,99.245 344.250,99.400 344.000 C 99.536 343.780,99.930 343.600,100.277 343.600 C 100.623 343.600,101.258 343.195,101.688 342.700 C 103.454 340.669,103.600 339.617,103.600 328.938 C 103.600 313.499,104.528 314.394,88.538 314.416 C 79.364 314.429,76.786 314.548,75.957 314.999 M61.043 317.033 C 60.695 317.940,60.754 340.909,61.106 341.462 C 61.268 341.716,61.400 336.181,61.400 329.162 C 61.400 322.143,61.374 316.400,61.343 316.400 C 61.311 316.400,61.176 316.685,61.043 317.033 M115.778 329.200 C 115.778 336.130,115.833 338.965,115.899 335.500 C 115.966 332.035,115.966 326.365,115.899 322.900 C 115.833 319.435,115.778 322.270,115.778 329.200 M137.309 329.200 C 137.309 330.190,137.387 330.595,137.482 330.100 C 137.578 329.605,137.578 328.795,137.482 328.300 C 137.387 327.805,137.309 328.210,137.309 329.200 M257.693 329.200 C 257.693 329.970,257.775 330.285,257.876 329.900 C 257.976 329.515,257.976 328.885,257.876 328.500 C 257.775 328.115,257.693 328.430,257.693 329.200 M170.331 335.500 C 185.363 335.558,209.843 335.558,224.731 335.500 C 239.619 335.442,227.320 335.394,197.400 335.394 C 167.480 335.394,155.299 335.442,170.331 335.500 M110.306 351.411 C 109.484 352.175,108.954 352.800,109.127 352.800 C 109.301 352.800,110.054 352.170,110.800 351.400 C 112.541 349.603,112.243 349.610,110.306 351.411 M336.821 350.500 C 336.843 351.050,341.546 360.366,341.579 359.927 C 341.591 359.777,340.655 357.707,339.500 355.327 C 338.345 352.947,337.340 350.865,337.267 350.700 C 337.193 350.535,343.643 350.400,351.600 350.400 C 359.557 350.400,366.007 350.536,365.933 350.702 C 365.860 350.868,364.495 353.670,362.900 356.929 C 361.305 360.187,360.009 362.976,360.021 363.127 C 360.055 363.565,366.356 351.052,366.379 350.500 C 366.395 350.109,363.185 350.000,351.600 350.000 C 340.016 350.000,336.804 350.109,336.821 350.500 M346.800 370.600 C 347.186 371.065,348.264 371.200,351.600 371.200 C 354.936 371.200,356.014 371.065,356.400 370.600 C 356.744 370.185,356.759 370.000,356.449 370.000 C 356.202 370.000,356.000 370.180,356.000 370.400 C 356.000 370.642,354.267 370.800,351.600 370.800 C 348.933 370.800,347.200 370.642,347.200 370.400 C 347.200 370.180,346.998 370.000,346.751 370.000 C 346.441 370.000,346.456 370.185,346.800 370.600 M29.701 372.200 C 29.705 373.080,29.787 373.393,29.883 372.895 C 29.979 372.398,29.975 371.678,29.875 371.295 C 29.775 370.913,29.696 371.320,29.701 372.200 M288.893 372.400 C 288.893 373.170,288.975 373.485,289.076 373.100 C 289.176 372.715,289.176 372.085,289.076 371.700 C 288.975 371.315,288.893 371.630,288.893 372.400 " stroke="none" fill="#f5b68a" fill-rule="evenodd"></path><path id="path3" d="M224.080 6.480 C 223.816 6.744,223.600 7.374,223.600 7.880 C 223.600 8.386,223.420 8.800,223.200 8.800 C 222.980 8.800,222.800 9.055,222.800 9.367 C 222.800 9.679,222.125 10.354,221.300 10.867 L 219.800 11.800 131.600 12.000 C 46.706 12.193,43.325 12.228,41.400 12.948 C 36.548 14.762,32.510 18.703,30.731 23.361 C 29.806 25.785,29.028 50.467,29.783 53.474 L 30.015 54.400 54.536 54.400 L 79.056 54.400 80.719 55.823 C 82.264 57.146,83.571 59.879,83.055 60.709 C 82.956 60.869,85.468 60.946,88.637 60.879 L 94.400 60.759 94.400 59.369 C 94.400 58.256,94.757 57.622,96.189 56.189 L 97.979 54.400 193.382 54.400 L 288.785 54.400 289.021 53.458 C 289.771 50.470,288.970 25.396,288.053 23.159 C 286.184 18.601,282.128 14.713,277.400 12.949 C 275.591 12.274,273.684 12.184,257.400 12.001 C 236.698 11.770,237.581 11.929,235.772 8.104 L 234.777 6.000 229.668 6.000 C 226.229 6.000,224.403 6.157,224.080 6.480 M335.559 12.908 C 332.845 14.721,332.801 15.002,332.807 30.400 C 332.810 37.990,332.956 44.427,333.132 44.704 C 333.384 45.100,337.392 45.186,351.826 45.104 L 370.200 45.000 370.301 30.600 C 370.444 10.325,372.135 12.004,351.559 12.001 C 337.003 12.000,336.910 12.005,335.559 12.908 " stroke="none" fill="#e5627d" fill-rule="evenodd"></path><path id="path4" d="M223.600 6.103 C 223.600 6.159,223.433 6.789,223.228 7.503 C 222.998 8.303,222.998 8.800,223.228 8.800 C 223.433 8.800,223.600 8.386,223.600 7.880 C 223.600 7.374,223.816 6.744,224.080 6.480 C 224.453 6.107,224.453 6.000,224.080 6.000 C 223.816 6.000,223.600 6.046,223.600 6.103 M235.431 7.412 C 237.343 11.989,236.272 11.765,257.400 12.001 C 273.684 12.184,275.591 12.274,277.400 12.949 C 282.128 14.713,286.184 18.601,288.053 23.159 C 288.970 25.396,289.771 50.470,289.021 53.458 L 288.785 54.400 193.382 54.400 L 97.979 54.400 96.189 56.189 C 93.340 59.039,93.832 63.399,97.230 65.395 C 98.590 66.194,99.304 66.201,193.800 66.400 L 289.000 66.600 289.200 220.000 C 289.310 304.370,289.535 372.520,289.700 371.444 C 290.244 367.895,290.067 67.027,289.520 66.480 C 289.149 66.109,267.435 66.000,194.220 65.999 C 104.745 65.999,99.322 65.959,98.008 65.299 C 94.063 63.317,93.697 57.969,97.354 55.754 C 98.563 55.022,101.428 54.994,194.000 54.800 L 289.400 54.600 289.400 39.800 L 289.400 25.000 287.965 22.000 C 285.669 17.198,281.487 13.724,275.972 12.037 C 275.034 11.750,268.670 11.600,257.456 11.600 C 237.491 11.600,236.551 11.408,235.937 7.202 C 235.862 6.685,235.578 6.190,235.308 6.101 C 234.952 5.983,234.986 6.348,235.431 7.412 M222.007 9.792 C 220.427 11.696,225.216 11.600,131.667 11.600 C 69.616 11.600,43.842 11.727,42.828 12.037 C 37.337 13.716,33.260 17.104,30.886 21.960 L 29.400 25.000 29.400 39.800 L 29.400 54.600 54.218 54.800 C 82.164 55.025,80.357 54.807,81.978 58.154 C 83.185 60.649,82.566 62.849,80.052 65.000 C 79.144 65.777,78.387 65.806,54.258 66.000 L 29.400 66.200 29.399 219.800 L 29.398 373.400 29.599 220.000 L 29.800 66.600 54.418 66.400 C 81.357 66.181,80.206 66.289,81.808 63.844 C 83.700 60.956,83.303 58.035,80.719 55.823 L 79.056 54.400 54.536 54.400 L 30.015 54.400 29.783 53.474 C 29.028 50.467,29.806 25.785,30.731 23.361 C 32.510 18.703,36.548 14.762,41.400 12.948 C 43.325 12.228,46.706 12.193,131.600 12.000 L 219.800 11.800 221.300 10.867 C 222.125 10.354,222.800 9.769,222.800 9.567 C 222.800 9.046,222.572 9.111,222.007 9.792 M335.518 12.256 C 332.609 13.790,332.613 13.763,332.481 30.165 C 332.387 41.926,332.468 44.997,332.881 45.259 C 333.556 45.687,369.640 45.689,370.314 45.261 C 370.722 45.003,370.805 41.863,370.714 30.168 C 370.557 9.788,372.423 11.582,351.439 11.642 C 339.419 11.677,336.394 11.793,335.518 12.256 M367.504 12.798 C 370.428 14.581,370.415 14.498,370.301 30.600 L 370.200 45.000 351.826 45.104 C 337.392 45.186,333.384 45.100,333.132 44.704 C 332.956 44.427,332.810 37.990,332.807 30.400 C 332.799 10.415,331.183 11.999,351.559 12.001 C 365.463 12.003,366.266 12.043,367.504 12.798 M332.800 65.600 L 332.800 74.000 351.600 74.000 L 370.400 74.000 370.400 65.600 L 370.400 57.200 351.600 57.200 L 332.800 57.200 332.800 65.600 M332.800 85.992 C 332.049 86.466,331.666 336.228,332.414 337.627 C 332.821 338.387,333.338 338.405,351.716 338.304 L 370.600 338.200 370.701 212.224 C 370.781 111.707,370.700 86.184,370.301 85.930 C 369.577 85.470,333.531 85.529,332.800 85.992 M370.200 212.000 L 370.200 337.800 351.600 337.800 L 333.000 337.800 332.898 212.400 C 332.841 143.430,332.881 86.773,332.987 86.496 C 333.137 86.099,337.093 86.014,351.689 86.096 L 370.200 86.200 370.200 212.000 M82.325 103.899 C 85.914 103.966,91.674 103.966,95.125 103.899 C 98.576 103.833,95.640 103.778,88.600 103.778 C 81.560 103.779,78.736 103.833,82.325 103.899 M73.200 104.400 C 72.712 104.715,72.764 104.789,73.476 104.794 C 73.958 104.797,74.464 104.620,74.600 104.400 C 74.915 103.891,73.988 103.891,73.200 104.400 M102.800 104.476 C 105.645 105.675,107.547 106.698,108.889 107.749 C 109.970 108.597,110.518 108.803,110.889 108.504 C 112.386 107.297,116.119 107.506,117.592 108.878 C 118.065 109.319,118.545 109.588,118.658 109.476 C 119.922 108.212,113.585 106.691,111.527 107.765 C 110.543 108.278,110.343 108.241,109.127 107.319 C 107.499 106.086,103.219 103.991,102.400 104.027 C 102.070 104.042,102.250 104.244,102.800 104.476 M69.540 106.213 C 65.875 108.632,63.713 111.417,61.941 116.000 C 61.525 117.077,61.400 120.493,61.400 130.800 C 61.400 144.857,61.387 144.734,63.306 148.704 C 65.103 152.421,68.825 155.526,73.427 157.146 C 76.235 158.135,99.631 158.469,102.440 157.560 C 108.209 155.694,114.886 149.395,114.785 145.913 C 114.777 145.631,114.219 146.522,113.545 147.893 C 111.454 152.150,107.855 155.241,103.214 156.764 C 99.908 157.849,77.667 158.037,74.276 157.008 C 69.363 155.517,65.286 151.983,63.073 147.295 L 61.800 144.600 61.800 130.800 L 61.800 117.000 63.251 114.000 C 65.024 110.336,69.702 105.600,71.548 105.600 C 71.771 105.600,72.064 105.420,72.200 105.200 C 72.678 104.426,71.658 104.814,69.540 106.213 M118.977 110.320 C 119.139 110.606,119.429 111.686,119.620 112.720 L 119.969 114.600 119.830 112.665 C 119.753 111.601,119.464 110.521,119.187 110.265 C 118.799 109.907,118.750 109.920,118.977 110.320 M119.025 115.500 C 118.899 115.885,118.066 116.984,117.174 117.943 C 116.282 118.902,115.630 119.764,115.725 119.859 C 116.006 120.139,119.600 115.964,119.600 115.357 C 119.600 114.585,119.300 114.660,119.025 115.500 M76.935 115.478 C 73.361 116.175,72.721 118.725,72.874 131.672 C 73.054 146.905,72.282 146.151,87.864 146.318 C 103.223 146.483,104.000 146.040,104.000 137.112 C 104.000 131.251,104.281 131.269,98.943 136.791 C 91.217 144.784,90.518 144.754,81.909 136.065 C 74.535 128.622,73.854 126.656,77.492 123.300 C 80.252 120.754,83.374 121.521,87.588 125.783 C 90.878 129.109,90.303 129.282,96.283 123.165 C 102.863 116.433,102.822 116.523,99.800 115.540 C 98.931 115.257,78.351 115.201,76.935 115.478 M100.672 116.500 C 101.337 117.166,101.282 117.291,99.532 119.100 C 98.521 120.145,96.176 122.575,94.321 124.500 C 90.281 128.691,91.066 128.634,87.368 125.007 C 84.094 121.796,82.525 121.043,79.967 121.452 C 76.300 122.038,73.782 126.642,75.381 129.839 C 76.014 131.104,86.842 141.888,88.295 142.700 C 90.134 143.728,94.597 142.779,95.633 141.139 C 95.760 140.937,97.560 139.039,99.633 136.923 L 103.400 133.074 103.514 136.911 C 103.764 145.314,102.625 146.000,88.424 146.000 C 77.161 146.000,76.735 145.926,74.672 143.610 L 73.600 142.407 73.602 130.703 C 73.605 114.638,72.643 115.558,89.286 115.705 C 98.851 115.790,100.046 115.873,100.672 116.500 M140.600 125.537 C 139.339 126.308,138.089 127.600,138.604 127.600 C 138.770 127.600,139.199 127.285,139.557 126.900 C 141.192 125.143,139.244 125.200,197.600 125.200 L 253.211 125.200 254.589 126.100 C 258.331 128.543,257.832 134.097,253.713 135.852 C 252.643 136.307,243.152 136.399,197.513 136.391 C 135.176 136.381,140.187 136.656,138.488 133.150 C 138.021 132.187,137.631 131.688,137.620 132.041 C 137.590 133.019,139.256 135.256,140.600 136.041 C 141.727 136.699,145.173 136.743,197.400 136.764 L 253.000 136.787 254.558 135.893 C 258.608 133.572,258.475 127.493,254.329 125.424 C 252.233 124.379,142.316 124.487,140.600 125.537 M137.800 128.800 C 137.650 129.273,137.617 129.750,137.727 129.860 C 137.837 129.970,138.050 129.673,138.200 129.200 C 138.350 128.727,138.383 128.250,138.273 128.140 C 138.163 128.030,137.950 128.327,137.800 128.800 M115.047 142.937 C 114.878 144.002,114.832 144.965,114.944 145.078 C 115.236 145.369,115.705 142.624,115.514 141.740 C 115.427 141.333,115.216 141.871,115.047 142.937 M75.515 169.928 C 75.138 170.078,81.044 170.200,88.639 170.200 C 96.233 170.200,102.032 170.083,101.524 169.940 C 100.290 169.592,76.388 169.582,75.515 169.928 M71.242 171.412 C 70.055 171.965,69.196 172.529,69.332 172.666 C 69.469 172.802,69.845 172.695,70.167 172.427 C 70.490 172.159,71.619 171.602,72.677 171.189 C 73.735 170.776,74.330 170.431,74.000 170.423 C 73.670 170.414,72.429 170.860,71.242 171.412 M103.200 170.800 C 103.530 171.013,104.070 171.188,104.400 171.188 C 104.933 171.188,104.933 171.145,104.400 170.800 C 104.070 170.587,103.530 170.412,103.200 170.412 C 102.667 170.412,102.667 170.455,103.200 170.800 M106.000 172.000 C 106.550 172.430,107.193 172.786,107.429 172.791 C 108.384 172.811,112.337 177.242,113.549 179.652 C 114.254 181.054,114.715 181.750,114.574 181.200 C 113.842 178.351,110.993 174.737,107.815 172.627 C 105.525 171.107,104.331 170.695,106.000 172.000 M66.967 174.308 C 65.009 176.193,64.350 177.042,63.306 179.026 C 61.407 182.638,61.400 182.704,61.400 197.200 L 61.400 211.000 62.674 213.600 C 64.606 217.542,69.926 222.800,71.983 222.800 C 72.219 222.800,72.723 222.968,73.105 223.173 C 75.584 224.506,96.804 224.992,101.674 223.828 C 106.541 222.664,110.964 219.506,113.126 215.651 C 114.425 213.333,113.981 213.597,112.287 216.149 C 108.009 222.592,103.671 224.007,88.274 223.986 C 74.512 223.967,71.085 223.113,66.660 218.601 C 62.039 213.889,61.478 211.222,61.667 194.874 L 61.805 183.000 63.151 180.242 C 63.911 178.684,65.431 176.519,66.642 175.268 C 69.089 172.742,69.328 172.034,66.967 174.308 M76.736 181.738 C 73.064 183.370,72.800 184.380,72.800 196.800 C 72.800 212.987,72.200 212.400,88.767 212.400 C 104.737 212.400,103.928 213.216,103.971 197.054 C 104.014 180.593,104.590 181.184,88.546 181.232 C 81.212 181.255,77.462 181.415,76.736 181.738 M100.801 182.664 C 103.395 184.197,103.600 185.212,103.600 196.546 C 103.600 212.212,104.001 211.736,90.629 211.939 C 79.619 212.106,76.926 211.880,75.537 210.676 C 73.647 209.039,73.600 208.698,73.600 196.657 L 73.600 185.261 74.667 183.993 C 76.268 182.090,76.534 182.053,88.538 182.025 C 98.228 182.003,99.823 182.086,100.801 182.664 M114.875 183.200 C 114.886 183.750,115.032 184.740,115.200 185.400 L 115.505 186.600 115.525 185.200 C 115.535 184.430,115.389 183.440,115.200 183.000 C 114.888 182.274,114.858 182.293,114.875 183.200 M142.000 191.197 C 141.450 191.375,166.363 191.538,197.362 191.560 L 253.724 191.600 255.030 192.596 C 258.147 194.974,257.621 200.396,254.131 201.855 C 252.140 202.687,142.462 202.664,140.880 201.832 C 139.541 201.126,138.631 200.061,138.084 198.556 C 137.715 197.542,137.659 197.511,137.632 198.299 C 137.575 199.914,140.175 202.297,142.526 202.784 C 146.334 203.575,252.254 203.157,254.041 202.345 C 258.216 200.447,258.709 194.598,254.914 191.997 L 253.459 191.000 198.229 190.937 C 167.853 190.902,142.550 191.019,142.000 191.197 M139.931 192.015 C 139.107 192.496,137.588 194.895,137.632 195.647 C 137.650 195.951,137.883 195.709,138.149 195.109 C 138.415 194.509,139.154 193.474,139.791 192.809 C 141.007 191.540,141.037 191.369,139.931 192.015 M115.051 209.400 C 114.870 210.500,114.547 211.725,114.335 212.122 C 114.122 212.519,114.020 213.059,114.108 213.322 C 114.374 214.116,115.666 209.710,115.518 208.513 C 115.413 207.655,115.306 207.859,115.051 209.400 M73.430 236.631 C 71.636 237.288,70.897 237.862,72.400 237.431 C 76.329 236.304,76.942 236.071,76.000 236.064 C 75.450 236.060,74.294 236.315,73.430 236.631 M100.800 236.400 C 101.350 236.576,102.160 236.726,102.600 236.732 L 103.400 236.744 102.600 236.400 C 102.160 236.211,101.350 236.062,100.800 236.068 L 99.800 236.080 100.800 236.400 M68.773 238.960 C 66.239 240.821,64.174 243.340,62.674 246.400 L 61.400 249.000 61.400 262.800 C 61.400 273.418,61.524 276.923,61.939 278.000 C 64.414 284.424,69.537 288.876,75.782 290.030 C 79.357 290.691,101.759 290.299,103.600 289.543 C 109.108 287.281,113.492 282.994,114.585 278.800 C 114.729 278.250,114.251 278.922,113.523 280.292 C 109.270 288.305,104.941 289.987,88.600 289.979 C 74.021 289.971,71.312 289.330,66.774 284.815 C 62.217 280.279,61.599 277.704,61.602 263.245 C 61.606 247.134,62.824 243.292,69.232 239.180 C 70.314 238.485,71.200 237.845,71.200 237.758 C 71.200 237.357,70.457 237.725,68.773 238.960 M106.400 238.400 C 106.950 238.830,107.580 239.189,107.800 239.197 C 108.020 239.206,109.079 240.116,110.153 241.220 C 112.297 243.424,113.019 243.766,111.177 241.705 C 109.742 240.099,106.500 237.597,105.869 237.609 C 105.611 237.614,105.850 237.970,106.400 238.400 M112.409 243.738 C 112.404 243.924,112.726 244.554,113.125 245.138 C 113.868 246.225,114.542 248.161,115.167 251.000 C 115.491 252.469,115.523 252.500,115.560 251.378 C 115.611 249.824,114.217 245.707,113.198 244.400 C 112.769 243.850,112.414 243.552,112.409 243.738 M75.783 248.345 C 73.019 250.031,73.000 250.129,73.000 263.000 C 73.000 279.466,72.133 278.600,88.631 278.600 L 99.863 278.600 101.332 277.479 C 103.968 275.468,104.000 275.291,103.999 262.920 C 103.996 246.770,104.844 247.603,88.400 247.603 C 78.000 247.603,76.893 247.668,75.783 248.345 M100.841 248.908 C 103.453 250.653,103.599 251.388,103.599 262.851 C 103.600 274.270,103.439 275.166,101.067 276.976 L 99.724 278.000 88.542 278.000 C 72.516 278.000,73.600 279.088,73.600 262.992 C 73.600 246.984,72.591 248.004,88.441 248.001 C 99.255 248.000,99.510 248.019,100.841 248.908 M140.978 257.584 C 139.739 258.086,137.599 260.709,137.609 261.714 C 137.615 262.375,137.802 262.194,138.345 261.000 C 139.211 259.096,139.775 258.585,141.842 257.827 C 142.720 257.506,143.051 257.255,142.600 257.254 C 142.160 257.252,141.430 257.400,140.978 257.584 M252.691 257.665 C 257.755 258.799,258.723 265.355,254.200 267.890 C 252.592 268.791,252.892 269.203,254.526 268.337 C 259.543 265.680,257.667 257.031,252.120 257.243 C 251.224 257.277,251.338 257.361,252.691 257.665 M137.632 264.353 C 137.542 265.893,140.350 268.818,141.886 268.784 C 142.343 268.774,142.169 268.578,141.400 268.239 C 140.015 267.627,138.814 266.385,138.138 264.864 C 137.878 264.279,137.650 264.049,137.632 264.353 M115.047 275.337 C 114.878 276.402,114.832 277.365,114.944 277.478 C 115.236 277.769,115.705 275.024,115.514 274.140 C 115.427 273.733,115.216 274.271,115.047 275.337 M82.325 302.299 C 85.914 302.366,91.674 302.366,95.125 302.299 C 98.576 302.233,95.640 302.178,88.600 302.178 C 81.560 302.179,78.736 302.233,82.325 302.299 M71.270 303.647 C 68.279 305.098,64.570 308.632,63.341 311.203 C 61.378 315.310,61.400 315.108,61.400 329.200 C 61.400 339.507,61.525 342.923,61.941 344.000 C 64.362 350.263,68.214 353.972,74.360 355.960 C 76.265 356.577,101.165 356.562,102.681 355.944 C 107.132 354.129,107.702 353.618,103.700 355.030 C 100.354 356.211,77.933 356.517,74.353 355.431 C 70.064 354.129,66.523 351.464,64.214 347.800 C 61.877 344.091,61.800 343.484,61.800 328.800 L 61.800 315.400 63.118 312.600 C 65.163 308.256,68.979 304.743,73.124 303.387 C 74.266 303.013,75.200 302.639,75.200 302.554 C 75.200 302.093,73.500 302.566,71.270 303.647 M102.200 302.800 C 103.396 303.314,104.395 303.314,103.600 302.800 C 103.270 302.587,102.640 302.422,102.200 302.434 L 101.400 302.456 102.200 302.800 M104.400 303.381 C 104.400 303.481,105.075 303.882,105.900 304.273 C 108.918 305.702,111.913 308.788,113.587 312.194 C 114.238 313.517,114.777 314.369,114.785 314.087 C 114.820 312.897,112.546 309.282,110.435 307.171 C 108.128 304.864,104.400 302.523,104.400 303.381 M76.923 313.868 C 73.385 314.600,72.723 317.251,72.874 330.072 C 73.055 345.412,72.414 344.800,88.305 344.800 C 104.645 344.800,104.000 345.440,104.000 329.228 C 104.000 312.935,104.861 313.824,89.000 313.743 C 82.840 313.712,77.405 313.768,76.923 313.868 M101.284 315.259 C 103.436 316.792,103.600 317.761,103.600 328.938 C 103.600 339.617,103.454 340.669,101.688 342.700 C 101.258 343.195,100.623 343.600,100.277 343.600 C 99.930 343.600,99.536 343.780,99.400 344.000 C 99.245 344.250,95.216 344.400,88.638 344.400 C 77.142 344.400,76.740 344.331,74.672 342.010 L 73.600 340.807 73.600 329.189 C 73.600 313.172,72.320 314.439,88.538 314.416 C 99.715 314.401,100.114 314.427,101.284 315.259 M114.875 315.600 C 114.886 316.150,115.032 317.140,115.200 317.800 L 115.505 319.000 115.525 317.600 C 115.535 316.830,115.389 315.840,115.200 315.400 C 114.888 314.674,114.858 314.693,114.875 315.600 M140.496 323.998 C 139.134 324.829,137.593 326.971,137.617 328.000 C 137.625 328.330,137.966 327.930,138.375 327.112 C 139.181 325.500,139.749 324.874,141.110 324.100 C 141.802 323.707,153.815 323.600,197.440 323.600 L 252.891 323.600 254.405 324.451 C 258.331 326.657,257.921 332.458,253.713 334.252 C 252.643 334.707,243.106 334.800,197.307 334.800 C 134.908 334.800,140.333 335.099,138.522 331.558 C 138.027 330.591,137.618 330.070,137.613 330.400 C 137.596 331.434,139.137 333.574,140.496 334.402 C 141.781 335.185,142.626 335.197,197.508 335.199 L 253.216 335.200 254.746 334.234 C 258.579 331.815,258.477 326.353,254.558 324.107 L 253.000 323.213 197.400 323.208 C 142.620 323.203,141.781 323.215,140.496 323.998 M115.047 341.337 C 114.878 342.402,114.832 343.365,114.944 343.478 C 115.236 343.769,115.705 341.024,115.514 340.140 C 115.427 339.733,115.216 340.271,115.047 341.337 M113.479 346.372 C 112.336 348.792,110.508 350.974,108.000 352.910 C 107.230 353.505,106.798 353.993,107.040 353.996 C 108.681 354.012,115.216 345.847,114.729 344.388 C 114.658 344.174,114.095 345.067,113.479 346.372 M336.462 349.953 C 336.019 350.234,336.042 350.521,336.592 351.584 C 336.959 352.294,337.350 352.783,337.462 352.671 C 337.574 352.560,337.470 352.105,337.232 351.661 C 336.995 351.216,336.800 350.661,336.800 350.426 C 336.800 350.132,341.391 350.000,351.600 350.000 C 362.526 350.000,366.400 350.121,366.400 350.462 C 366.400 350.970,356.963 369.895,356.309 370.700 C 356.029 371.044,354.558 371.200,351.600 371.200 C 346.462 371.200,347.532 372.286,342.209 361.668 C 339.856 356.975,337.853 353.213,337.758 353.308 C 337.563 353.504,346.082 370.535,346.819 371.423 C 347.504 372.249,355.692 372.253,356.377 371.428 C 357.910 369.581,367.226 350.263,366.734 349.951 C 366.034 349.507,337.162 349.509,336.462 349.953 M29.622 374.505 C 29.610 375.113,29.760 375.923,29.956 376.305 C 30.152 376.687,30.734 377.900,31.250 379.000 C 32.868 382.454,39.098 387.633,41.600 387.606 C 41.930 387.602,41.120 387.086,39.800 386.459 C 35.217 384.280,31.915 380.505,30.372 375.681 C 29.838 374.010,29.637 373.695,29.622 374.505 M288.325 375.870 C 287.717 377.955,287.632 379.591,288.227 377.757 C 288.362 377.341,288.652 376.622,288.872 376.160 C 289.092 375.698,289.210 374.923,289.136 374.438 C 289.044 373.842,288.781 374.307,288.325 375.870 M286.424 380.162 C 285.118 382.275,281.696 385.177,279.000 386.459 C 277.680 387.086,276.909 387.600,277.286 387.600 C 279.806 387.601,288.641 380.108,287.484 378.951 C 287.378 378.845,286.901 379.390,286.424 380.162 M42.938 388.094 C 43.192 388.256,74.630 388.399,112.800 388.413 C 190.152 388.441,183.900 388.206,185.886 391.159 C 186.407 391.934,186.800 392.248,186.800 391.890 C 186.800 390.904,184.509 388.863,182.879 388.397 C 181.170 387.908,42.173 387.607,42.938 388.094 M239.000 387.995 L 203.000 388.200 201.575 389.086 C 200.791 389.574,199.940 390.384,199.683 390.886 C 198.852 392.513,198.411 394.000,198.760 394.000 C 198.947 394.000,199.200 393.500,199.322 392.889 C 199.444 392.279,199.933 391.284,200.409 390.679 C 202.266 388.318,200.849 388.401,239.749 388.394 C 262.075 388.390,275.624 388.243,276.000 388.000 C 276.489 387.684,276.452 387.629,275.800 387.701 C 275.360 387.750,258.800 387.882,239.000 387.995 " stroke="none" fill="#95614d" fill-rule="evenodd"></path></g></svg>